<svg width="32" height="32" viewBox="0 0 32 32" fill="none" xmlns="http://www.w3.org/2000/svg">
<circle cx="16" cy="16" r="16" fill="#5D5DFF"/>
<path d="M22.816 8H9.18533C8.53066 8 8 8.51534 8 9.14732V22.856C8 23.486 8.53066 24 9.18533 24H22.8153C23.4707 24 24 23.486 24 22.856V9.14732C24 8.51534 23.4706 8 22.816 8ZM12.852 21.3927H10.4353V14.1707H12.852V21.3927H12.852ZM11.642 13.1853H11.626C10.8147 13.1853 10.29 12.6267 10.29 11.936C10.29 11.226 10.8307 10.6866 11.6573 10.6866C12.4846 10.6866 12.9933 11.226 13.0086 11.936C13.0093 12.6267 12.4853 13.1853 11.642 13.1853ZM21.5647 21.3927H19.1527V17.53C19.1527 16.5593 18.798 15.892 17.9233 15.892C17.252 15.892 16.8593 16.3413 16.6867 16.7773C16.6233 16.9253 16.6067 17.142 16.6067 17.3593V21.3926H14.1887C14.1887 21.3926 14.2193 14.8466 14.1887 14.1706H16.6067V15.1946C16.924 14.7033 17.4987 14 18.782 14C20.374 14 21.5647 15.0327 21.5647 17.2513V21.3927V21.3927ZM16.592 15.218C16.594 15.2107 16.5973 15.2033 16.606 15.1953V15.218H16.592Z" fill="white"/>
</svg>
