<svg width="32" height="32" viewBox="0 0 32 32" fill="none" xmlns="http://www.w3.org/2000/svg">
<circle cx="16" cy="16" r="16" fill="#25282C"/>
<path fill-rule="evenodd" clip-rule="evenodd" d="M24 10.5784C23.4121 10.8461 22.7791 11.0271 22.1152 11.108C22.7931 10.692 23.3135 10.0322 23.5586 9.2465C22.9238 9.63174 22.2223 9.91199 21.4728 10.0622C20.8755 9.40837 20.0218 9 19.0771 9C17.2655 9 15.7958 10.5071 15.7958 12.3658C15.7958 12.6297 15.8239 12.8858 15.8803 13.1324C13.1523 12.9917 10.7341 11.6531 9.11398 9.61437C8.83136 10.1132 8.66974 10.692 8.66974 11.3083C8.66974 12.4756 9.24923 13.5059 10.1301 14.1098C9.59298 14.0934 9.08573 13.9403 8.64249 13.6899V13.7313C8.64249 15.3627 9.7741 16.7234 11.2767 17.0316C11.0016 17.1106 10.7113 17.1501 10.4117 17.1501C10.2005 17.1501 9.99384 17.1299 9.79372 17.0904C10.2116 18.4271 11.4231 19.4007 12.8599 19.4267C11.7367 20.3301 10.3206 20.8683 8.78324 20.8683C8.51837 20.8683 8.25637 20.8529 8 20.8221C9.45285 21.7754 11.179 22.333 13.0318 22.333C19.0703 22.333 22.3713 17.2049 22.3713 12.7567C22.3713 12.6103 22.3684 12.4639 22.3628 12.3204C23.0045 11.8457 23.5614 11.2535 24 10.5784Z" fill="#5D5DFF"/>
</svg>
