<svg width="32" height="32" viewBox="0 0 32 32" fill="none" xmlns="http://www.w3.org/2000/svg">
<circle cx="16" cy="16" r="16" fill="#25282C"/>
<path d="M17.2906 23.7344C17.2125 23.7375 17.1625 23.7438 17.1125 23.7438C16.0438 23.7438 14.9781 23.7406 13.9094 23.7469C13.7594 23.7469 13.7188 23.7063 13.7188 23.5563C13.7219 21.0688 13.7219 18.5781 13.7219 16.0906C13.7219 16.025 13.7219 15.9594 13.7219 15.875C13.1406 15.875 12.575 15.875 12 15.875C12 14.9875 12 14.1156 12 13.2188C12.0594 13.2188 12.1156 13.2188 12.1687 13.2188C12.6375 13.2188 13.1062 13.2156 13.575 13.2219C13.6937 13.2219 13.725 13.1875 13.725 13.0719C13.7187 12.375 13.7187 11.675 13.725 10.9781C13.7281 10.4906 13.8063 10.0156 14.0312 9.57501C14.3531 8.95313 14.8625 8.55001 15.5062 8.30001C16.0312 8.09376 16.5844 8.01876 17.1406 8.00938C18.0469 7.99688 18.9531 8.00313 19.8594 8.00001C19.9438 8.00001 20.0125 7.99688 20.0125 8.11563C20.0094 8.97501 20.0094 9.83438 20.0094 10.6938C20.0094 10.7031 20.0062 10.7125 19.9937 10.7531C19.9406 10.7531 19.8812 10.7531 19.8219 10.7531C19.2594 10.7531 18.6969 10.75 18.1344 10.7531C17.8094 10.7531 17.5469 10.8844 17.3813 11.1688C17.3313 11.2531 17.3 11.3625 17.3 11.4625C17.2906 11.9938 17.3 12.525 17.2937 13.0563C17.2937 13.1813 17.3312 13.2156 17.4531 13.2156C18.2344 13.2094 19.0156 13.2125 19.7969 13.2125C19.8594 13.2125 19.9187 13.2125 20.025 13.2125C19.9156 14.1063 19.8094 14.9813 19.7 15.8656C18.8875 15.8656 18.0969 15.8656 17.2906 15.8656C17.2906 18.4938 17.2906 21.1063 17.2906 23.7344Z" fill="#5D5DFF"/>
</svg>
